<?xml version="1.0" encoding="UTF-8" standalone="no"?>
<svg
   width="1000"
   height="1000"
   viewBox="0 0 1000 1000"
   fill="none"
   version="1.1"
   id="svg5"
   sodipodi:docname="osu-lazer-logo-white.svg"
   inkscape:version="1.4 (e7c3feb100, 2024-10-09)"
   xmlns:inkscape="http://www.inkscape.org/namespaces/inkscape"
   xmlns:sodipodi="http://sodipodi.sourceforge.net/DTD/sodipodi-0.dtd"
   xmlns="http://www.w3.org/2000/svg"
   xmlns:svg="http://www.w3.org/2000/svg">
  <defs
     id="defs5" />
  <sodipodi:namedview
     id="namedview5"
     pagecolor="#ffffff"
     bordercolor="#000000"
     borderopacity="0.25"
     inkscape:showpageshadow="2"
     inkscape:pageopacity="0.0"
     inkscape:pagecheckerboard="0"
     inkscape:deskcolor="#d1d1d1"
     inkscape:zoom="0.69"
     inkscape:cx="584.78261"
     inkscape:cy="607.24638"
     inkscape:window-width="1580"
     inkscape:window-height="856"
     inkscape:window-x="0"
     inkscape:window-y="0"
     inkscape:window-maximized="1"
     inkscape:current-layer="svg5" />
  <path
     d="m 809.01663,351.08696 c 14.00554,0 23.60988,10.40405 23.60988,24.81001 v 133.25291 c 0,14.40596 -9.60434,24.81002 -23.60988,24.81002 -14.40486,0 -23.60879,-10.40406 -23.60879,-24.81002 V 375.89697 c 0,-14.40596 9.20393,-24.81001 23.60879,-24.81001 z m 0,267.70594 c -17.20663,0 -30.81177,-13.60514 -30.81177,-30.81176 0,-16.80622 13.60514,-30.41246 30.81177,-30.41246 17.20773,0 30.81286,13.60624 30.81286,30.41246 0,17.20662 -13.60513,30.81176 -30.81286,30.81176 z"
     fill="#ffffff"
     id="path1"
     style="stroke-width:1.10306" />
  <path
     d="m 722.78274,415.51225 c 14.40596,0 23.60988,10.40406 23.60988,24.40961 v 88.4356 c 0,65.22611 -40.21424,90.43544 -89.03455,90.43544 -49.21962,0 -89.43387,-25.20933 -89.43387,-90.43544 v -88.4356 c 0,-14.00555 9.20393,-24.40961 23.60989,-24.40961 14.00555,0 23.60878,10.40406 23.60878,24.40961 v 85.23452 c 0,35.61338 15.00492,49.61893 42.2152,49.61893 26.81096,0 41.81588,-14.00555 41.81588,-49.61893 v -85.23452 c 0,-14.00555 9.60324,-24.40961 23.60879,-24.40961 z"
     fill="#ffffff"
     id="path2"
     style="stroke-width:1.10306" />
  <path
     d="m 434.03704,469.5346 c 0,13.20472 13.60513,18.00745 39.61638,24.00919 36.01379,8.80352 70.42815,18.00745 70.42815,62.42545 0,43.21677 -32.013,62.82476 -78.03154,62.82476 -38.01474,0 -65.62653,-13.20583 -78.43084,-28.4115 -10.00475,-12.0046 -8.80352,-22.40866 0.79971,-31.61259 12.0046,-11.60419 22.40866,-6.80257 29.21233,-0.80082 10.80337,10.00475 24.0092,20.40881 49.61893,20.40881 19.20758,0 31.21328,-6.40326 31.21328,-19.20758 0,-12.80542 -12.80542,-17.20662 -46.41896,-26.41055 -33.21312,-9.20393 -62.82475,-18.00745 -62.82475,-57.62273 0,-44.41801 36.01379,-62.82586 76.02948,-62.82586 22.80907,0 48.82031,6.00285 64.82681,23.20947 6.80257,6.80257 12.0046,16.40691 0,29.61164 -12.0057,12.405 -20.80922,8.80352 -29.21232,2.40136 -7.60229,-5.60244 -20.80812,-15.20568 -40.81652,-15.20568 -13.60513,0 -26.01014,4.40121 -26.01014,17.20663 z"
     fill="#ffffff"
     id="path3"
     style="stroke-width:1.10306" />
  <path
     d="m 259.32895,618.794 c -57.69664,0 -99.0713,-44.15989 -99.0713,-103.57509 0,-59.81671 41.37466,-103.57509 99.0713,-103.57509 57.69773,0 99.07239,43.75838 99.07239,103.57509 0,59.4152 -41.37466,103.57509 -99.07239,103.57509 z m 0,-44.15989 c 33.40395,0 54.28156,-25.69356 54.28156,-59.4152 0,-33.72273 -20.87761,-59.81671 -54.28156,-59.81671 -33.40285,0 -54.28046,26.09398 -54.28046,59.81671 0,33.72164 20.87761,59.4152 54.28046,59.4152 z"
     fill="#ffffff"
     id="path4"
     style="stroke-width:1.10306" />
  <path
     d="M 996.37681,500 C 996.37681,774.14119 774.14119,996.37681 500,996.37681 225.85881,996.37681 3.6231884,774.14119 3.6231884,500 3.6231884,225.85881 225.85881,3.6231884 500,3.6231884 774.14119,3.6231884 996.37681,225.85881 996.37681,500 Z M 53.26087,500 C 53.26087,746.72685 253.27315,946.73913 500,946.73913 746.72685,946.73913 946.73913,746.72685 946.73913,500 946.73913,253.27315 746.72685,53.26087 500,53.26087 253.27315,53.26087 53.26087,253.27315 53.26087,500 Z"
     fill="#ffffff"
     id="path5"
     style="stroke-width:1.10306" />
</svg>
